<?xml version="1.0" standalone="no"?>
<!DOCTYPE svg PUBLIC "-//W3C//DTD SVG 20010904//EN"
 "http://www.w3.org/TR/2001/REC-SVG-20010904/DTD/svg10.dtd">
<svg version="1.0" xmlns="http://www.w3.org/2000/svg"
 width="158.000000pt" height="158.000000pt" viewBox="0 0 158.000000 158.000000"
 preserveAspectRatio="xMidYMid meet">
<metadata>
Created by potrace 1.11, written by Peter Selinger 2001-2013
</metadata>
<g transform="translate(0.000000,158.000000) scale(0.100000,-0.100000)"
fill="#000000" stroke="none">
<path d="M730 1433 c-104 -26 -172 -81 -214 -173 -19 -41 -21 -68 -24 -295 -5
-318 6 -373 86 -451 69 -67 166 -98 300 -96 125 3 242 52 292 122 47 66 53
104 59 347 l6 231 30 43 c38 53 110 94 199 112 39 7 65 16 60 19 -46 29 -285
106 -379 123 -16 2 -39 7 -50 9 -117 23 -292 28 -365 9z"/>
<path d="M388 993 l-33 -68 -2 -216 c-1 -192 -4 -222 -21 -262 -33 -74 -122
-128 -236 -143 l-49 -7 39 -20 c100 -52 332 -114 496 -134 100 -12 229 -7 290
11 64 18 132 66 165 116 23 33 57 130 49 137 -2 3 -24 -2 -49 -11 -130 -44
-315 -37 -420 16 -60 30 -114 85 -144 146 -27 56 -28 61 -31 280 -2 122 -8
222 -12 222 -5 0 -24 -30 -42 -67z"/>
</g>
</svg>
